<?xml version="1.0" encoding="UTF-8"?>
<svg version="1.1" xmlns="http://www.w3.org/2000/svg" width="1160" height="410">
<path d="M0 0 C382.8 0 765.6 0 1160 0 C1160 135.3 1160 270.6 1160 410 C777.2 410 394.4 410 0 410 C0 274.7 0 139.4 0 0 Z " fill="#010101" transform="translate(0,0)"/>
<path d="M0 0 C1.07093076 -0.00657338 1.07093076 -0.00657338 2.16349649 -0.01327956 C4.5444253 -0.02658271 6.92531716 -0.03282724 9.30627441 -0.03897095 C11.01841394 -0.04687874 12.73055182 -0.0551481 14.44268799 -0.06375122 C20.05670598 -0.08989733 25.67073115 -0.10527343 31.28479004 -0.11953735 C33.22292586 -0.12490045 35.16106164 -0.13027797 37.09919739 -0.13566971 C45.1664948 -0.1572893 53.23379028 -0.17602268 61.30110931 -0.1872921 C72.83263824 -0.20351083 84.3638292 -0.2366488 95.89523077 -0.29369295 C104.01949477 -0.33250129 112.1436688 -0.35193776 120.26802301 -0.35721266 C125.11207884 -0.36085176 129.95577358 -0.37271848 134.79972839 -0.4053154 C139.36353075 -0.43558771 143.92675714 -0.44164025 148.49063873 -0.42993164 C150.15539457 -0.42971249 151.82017865 -0.43788483 153.48484039 -0.45558548 C168.83875317 -0.60981254 181.35160989 2.19996242 192.77307129 13.1499939 C202.99188345 23.78590043 204.87791593 34.52336444 204.87634277 48.68807983 C204.87851893 50.88261614 204.89666375 53.07664085 204.91564941 55.27108765 C204.9711579 68.44190917 202.64387313 79.80152192 194.31604004 90.52890015 C185.49306981 99.35187038 175.39777221 104.25376805 162.801651 104.27832031 C162.04351608 104.27472504 161.28538116 104.27112976 160.50427246 104.26742554 C159.69399597 104.26757156 158.88371948 104.26771759 158.04888916 104.26786804 C155.38140142 104.26717362 152.71398427 104.25940327 150.04650879 104.2515564 C148.19277484 104.24969055 146.3390404 104.24826743 144.48530579 104.24726868 C139.61421337 104.24345666 134.74315092 104.2336376 129.87207031 104.2225647 C124.89831955 104.2123223 119.92456394 104.207765 114.95080566 104.20272827 C105.19753731 104.19201415 95.44429117 104.17495352 85.69104004 104.15390015 C85.10592191 114.06020444 86.31046196 120.22690537 92.74961662 127.78532887 C94.34016019 129.56894272 95.9669454 131.31241735 97.60510254 133.05233765 C98.75421021 134.30834177 99.9031216 135.56452549 101.05184937 136.82087708 C104.73259476 140.797322 108.5163686 144.66650929 112.31604004 148.52890015 C112.95274628 149.18479 113.58945251 149.84067986 114.24545288 150.51644516 C135.38994749 172.58416961 135.38994749 172.58416961 164.06750488 180.29110718 C170.73318716 180.06948267 177.44558069 179.46739905 183.96127319 178.00312805 C191.75946695 176.33843296 196.89730695 179.35191483 203.44104004 183.40390015 C209.01160774 187.60444423 211.80316838 193.57920094 213.69104004 200.15390015 C213.91809082 203.49716187 213.91809082 203.49716187 213.88635254 207.08358765 C213.87990723 208.37265015 213.87346191 209.66171265 213.86682129 210.98983765 C213.85011467 212.33619457 213.83318483 213.68254873 213.81604004 215.02890015 C213.80599668 216.39868532 213.79687321 217.76847756 213.78869629 219.13827515 C213.76518416 222.4769977 213.73231933 225.81535776 213.69104004 229.15390015 C215.36275269 229.13033447 215.36275269 229.13033447 217.0682373 229.10629272 C221.22604061 229.05175383 225.38381264 229.01746335 229.54187012 228.98910522 C231.33717171 228.97407299 233.13243692 228.95364158 234.9276123 228.92758179 C237.5168153 228.89095229 240.10553032 228.87411804 242.69494629 228.8609314 C243.88755821 228.83770561 243.88755821 228.83770561 245.10426331 228.81401062 C251.10321892 228.81222265 256.02591155 229.77014976 260.65197754 233.9078064 C261.11861816 234.50464233 261.58525879 235.10147827 262.06604004 235.71640015 C262.54814941 236.31581421 263.03025879 236.91522827 263.52697754 237.5328064 C266.04810541 241.04377307 265.85204564 244.1630892 265.86804199 248.33822632 C265.87461319 249.07829926 265.88118439 249.81837219 265.88795471 250.58087158 C265.90770394 253.03620502 265.91935578 255.49147716 265.92932129 257.9468689 C265.93339682 258.785805 265.93747234 259.6247411 265.94167137 260.4890995 C265.96254213 264.93213277 265.97683772 269.37513508 265.98620605 273.81820679 C265.99725393 278.40033945 266.0316319 282.98198426 266.07137775 287.56394482 C266.09757199 291.09251282 266.10590052 294.62096529 266.10948753 298.14962196 C266.1143487 299.83805944 266.12594932 301.52649193 266.14452553 303.21483421 C266.16897058 305.58447786 266.16794239 307.95286922 266.16101074 310.32260132 C266.18022583 311.36014809 266.18022583 311.36014809 266.1998291 312.4186554 C266.14262612 317.81141522 264.6310575 320.79258703 261.69104004 325.15390015 C256.00450703 330.41394318 251.74992438 331.45405658 244.10217285 331.46029663 C243.23661774 331.46862015 242.37106262 331.47694366 241.47927856 331.48551941 C238.61752827 331.50961563 235.75600604 331.51839189 232.89416504 331.5249939 C230.90122408 331.53396184 228.90828382 331.54308372 226.91534424 331.55235291 C222.73574183 331.56884536 218.55621954 331.57654326 214.37658691 331.57943726 C209.03222442 331.58481551 203.68861975 331.62247166 198.34447098 331.66818142 C194.22651452 331.69799185 190.10873947 331.70516171 185.99068451 331.70616341 C184.02117194 331.71035923 182.05165851 331.72276784 180.0822525 331.74368095 C177.32010488 331.77067262 174.55969948 331.76574656 171.79748535 331.75326538 C170.58770523 331.77551682 170.58770523 331.77551682 169.35348511 331.79821777 C162.10642388 331.70541963 157.25704636 328.7857015 152.25354004 323.65390015 C149.35809034 319.02118063 149.55515934 314.26117313 149.51403809 308.90438843 C149.50746689 308.19313812 149.50089569 307.48188782 149.49412537 306.74908447 C149.4744977 304.40745928 149.46275519 302.0658978 149.45275879 299.72421265 C149.44868326 298.92112545 149.44460773 298.11803825 149.44040871 297.29061508 C149.41959572 293.04208386 149.40527185 288.79358451 149.39587402 284.54501343 C149.38480223 280.1681016 149.35038013 275.79169709 149.31070232 271.41496468 C149.28451054 268.03823935 149.27618008 264.66163471 149.27259254 261.28481674 C149.26773546 259.67173703 149.25614653 258.0586624 149.23755455 256.44568253 C149.21310058 254.18411585 149.21413838 251.92386043 149.22106934 249.66220093 C149.21520309 248.37822418 149.20933685 247.09424744 149.20329285 245.7713623 C149.93274726 240.36123635 152.34163139 235.69077617 156.75354004 232.27890015 C161.59010588 228.78010784 165.76833332 229.02083111 171.51525879 229.0562439 C172.80736015 229.05836632 172.80736015 229.05836632 174.12556458 229.06053162 C176.87659173 229.06612874 179.62753748 229.07868069 182.37854004 229.09140015 C184.24377324 229.09641552 186.10900771 229.10097836 187.97424316 229.10507202 C192.54654015 229.11609723 197.11877629 229.13335988 201.69104004 229.15390015 C201.64667784 225.13300253 201.57663105 221.11342511 201.48352051 217.09335327 C201.45542381 215.7279185 201.43415327 214.36232451 201.42004395 212.99667358 C201.39846022 211.02535976 201.34968544 209.05440384 201.30041504 207.08358765 C201.27946777 205.90006714 201.25852051 204.71654663 201.23693848 203.49716187 C200.46561524 198.7733245 198.28556277 195.64212136 194.81604004 192.40390015 C182.03864292 184.88778419 160.41611529 185.62633988 146.39706421 188.36321259 C132.43083515 192.44407916 121.94922481 206.88925814 112.86920166 217.48947144 C108.98147744 221.9795954 104.94426047 226.33530808 100.9138298 230.69713497 C97.78739582 234.08125134 94.69452428 237.48092822 91.68157959 240.96678162 C90.84903908 241.90656105 90.84903908 241.90656105 89.99967957 242.86532593 C88.96739627 244.03063618 87.95128188 245.21056273 86.95545959 246.40718079 C85.55926514 247.95835876 85.55926514 247.95835876 82.69104004 250.15390015 C78.99785499 250.20464144 76.79056856 249.99898418 73.83311462 247.72592163 C73.3562471 247.10274048 72.87937958 246.47955933 72.38806152 245.8374939 C71.80716766 245.11159058 71.2262738 244.38568726 70.6277771 243.63778687 C69.98865387 242.81810425 69.34953064 241.99842163 68.69104004 241.15390015 C67.1280839 239.28341846 65.55584687 237.42066861 63.97644043 235.5640564 C63.54987026 235.06133681 63.12330009 234.55861723 62.68380356 234.04066372 C38.08542999 202.84993531 38.08542999 202.84993531 3.85510254 186.6578064 C-8.68045682 185.83112461 -26.19335735 185.67041342 -36.30895996 194.15390015 C-39.89752804 198.47952681 -40.81964282 201.50748173 -40.91833496 207.08358765 C-40.95056152 208.37265015 -40.98278809 209.66171265 -41.01599121 210.98983765 C-41.03073227 212.3361873 -41.04504996 213.68254165 -41.05895996 215.02890015 C-41.08714708 216.39872918 -41.11707833 217.76852349 -41.14880371 219.13827515 C-41.21933754 222.47687617 -41.27211981 225.81478529 -41.30895996 229.15390015 C-40.19972168 229.13295288 -39.0904834 229.11200562 -37.94763184 229.09042358 C-33.80290817 229.01761548 -29.6582402 228.97195319 -25.51306152 228.93417358 C-23.72455312 228.91415056 -21.93610942 228.8869236 -20.14782715 228.85214233 C-17.56595834 228.8032106 -14.98496046 228.7808385 -12.40270996 228.76327515 C-11.21783997 228.73230743 -11.21783997 228.73230743 -10.0090332 228.70071411 C-3.74142559 228.69822314 1.61630898 230.24157108 6.25683594 234.63699341 C10.43142082 239.4436915 10.81799652 242.99740974 10.83630371 249.19223022 C10.83966232 249.90479477 10.84302094 250.61735931 10.84648132 251.35151672 C10.85598525 253.70883932 10.8579343 256.06609082 10.85900879 258.4234314 C10.86222229 260.0638685 10.86558643 261.70430532 10.86909485 263.34474182 C10.87508509 266.78544784 10.87693491 270.22612874 10.87634277 273.6668396 C10.87624128 278.06840731 10.88988091 282.46981325 10.90711498 286.87134266 C10.91825391 290.26089716 10.92026138 293.65041282 10.91973305 297.03998375 C10.92091079 298.66223393 10.92532102 300.28448518 10.93306541 301.9067173 C10.94290147 304.18038754 10.93997291 306.45371021 10.93395996 308.72738647 C10.93538498 310.01961624 10.93681 311.31184601 10.9382782 312.64323425 C10.51791948 318.61213086 8.87358443 322.85831401 4.69104004 327.15390015 C-0.78690958 330.90786626 -4.67294344 331.7406489 -11.23840332 331.68734741 C-12.10439651 331.69596298 -12.97038971 331.70457855 -13.86262512 331.7134552 C-16.70832723 331.73604739 -19.55303909 331.72938863 -22.39880371 331.7203064 C-24.38745921 331.72554511 -26.37611223 331.7318225 -28.36476135 331.73908997 C-32.52653724 331.74948184 -36.68797096 331.74495027 -40.84973145 331.73031616 C-46.17054313 331.71313356 -51.49027438 331.73662379 -56.81096554 331.77180576 C-60.91609285 331.79381656 -65.02096313 331.79232929 -69.12613106 331.78404045 C-71.08724718 331.78322289 -73.04838255 331.79004882 -75.00944328 331.80481148 C-77.75700228 331.8223249 -80.5026387 331.80765901 -83.25012207 331.78500366 C-84.05192902 331.79669586 -84.85373596 331.80838806 -85.67984009 331.82043457 C-91.66657728 331.72051314 -95.63529101 329.87116998 -100.30895996 326.15390015 C-104.88899668 321.22155291 -105.4609219 317.3569133 -105.48596191 310.84017944 C-105.49581871 309.72744156 -105.49581871 309.72744156 -105.50587463 308.59222412 C-105.52558336 306.13752132 -105.53726456 303.68287963 -105.54724121 301.2281189 C-105.5533545 299.96921813 -105.5533545 299.96921813 -105.55959129 298.68488503 C-105.58044133 294.243 -105.59474785 289.80114577 -105.60412598 285.35922241 C-105.61519043 280.77589988 -105.64959353 276.19306284 -105.68929768 271.60991192 C-105.71546471 268.0813864 -105.72381785 264.55297658 -105.72740746 261.02436256 C-105.73227292 259.33509859 -105.74388582 257.64583978 -105.76244545 255.95667076 C-105.78684047 253.58932566 -105.78587183 251.22323722 -105.77893066 248.85580444 C-105.79174072 248.16208237 -105.80455078 247.46836029 -105.81774902 246.75361633 C-105.7567275 241.02564627 -103.63298218 237.54610884 -99.71130371 233.5093689 C-94.27283279 229.17309475 -90.2254841 229.01470716 -83.48474121 229.0562439 C-82.19263985 229.05836632 -82.19263985 229.05836632 -80.87443542 229.06053162 C-78.12340827 229.06612874 -75.37246252 229.07868069 -72.62145996 229.09140015 C-70.75622676 229.09641552 -68.89099229 229.10097836 -67.02575684 229.10507202 C-62.45345985 229.11609723 -57.88122371 229.13335988 -53.30895996 229.15390015 C-53.32990723 228.32777222 -53.35085449 227.50164429 -53.37243652 226.65048218 C-53.4412627 223.53805794 -53.49107238 220.42602594 -53.52868652 217.31307983 C-53.55831473 215.32225537 -53.60918322 213.33178307 -53.66052246 211.34140015 C-53.7539938 202.0877374 -52.46460498 195.29643276 -47.62145996 187.40390015 C-43.09153036 182.99640107 -37.43870258 178.87168522 -31.30895996 177.15390015 C-29.12077633 177.35899592 -27.03166516 177.78278822 -24.87992859 178.22972107 C-10.90577033 181.04070753 5.85755033 182.55230701 18.6125412 175.01903534 C29.64056461 167.65875613 38.945059 158.00633717 48.12854004 148.52890015 C48.76734604 147.87854168 49.40615204 147.22818321 50.0643158 146.55811691 C53.81536654 142.73801526 57.50326397 138.87071195 61.11173439 134.91545296 C62.22951662 133.69070706 63.35561051 132.47348624 64.49057579 131.26464653 C71.79090423 123.4048421 74.90067738 117.81552347 74.85475159 106.9465332 C74.77371437 105.56417984 74.77371437 105.56417984 74.69104004 104.15390015 C73.65058029 104.16278259 72.61012054 104.17166504 71.53813171 104.18081665 C61.69651932 104.26216986 51.85497583 104.32199334 42.01310253 104.36114883 C36.95418894 104.38195637 31.89554845 104.41014822 26.83679199 104.45565796 C21.94788774 104.49936065 17.05924493 104.52308856 12.17016029 104.53340912 C10.31197308 104.54075688 8.45379895 104.55510457 6.59572411 104.57682037 C-8.98285353 104.7515252 -20.1601807 102.74763566 -32.30895996 92.15390015 C-42.87463698 81.23082179 -44.52357745 68.14387772 -44.60412598 53.63363647 C-44.61561117 52.19766356 -44.63600826 50.76173218 -44.66564941 49.32601929 C-44.9378445 36.10098757 -42.60000497 25.76482393 -34.30895996 15.15390015 C-33.83071777 14.53772827 -33.35247559 13.9215564 -32.85974121 13.28671265 C-24.48817361 3.79753022 -12.26559413 0.05364084 0 0 Z " fill="#F9F9F9" transform="translate(503.3089599609375,58.846099853515625)"/>
<path d="M0 0 C0.72579764 -0.00538554 1.45159527 -0.01077108 2.19938678 -0.01631981 C4.61435768 -0.03054688 7.02877635 -0.02350888 9.44377136 -0.01637268 C11.18225543 -0.0220791 12.92073576 -0.02904442 14.65921021 -0.03717041 C19.37011488 -0.05508934 24.08083314 -0.05393551 28.79176164 -0.04822803 C32.73042915 -0.04513357 36.66906099 -0.05123167 40.60772341 -0.05726677 C49.90401447 -0.07130697 59.20021362 -0.06975562 68.49650574 -0.05836487 C78.0719622 -0.04689097 87.64713833 -0.06094824 97.22255784 -0.08776134 C105.45635279 -0.1099504 113.69005995 -0.11654829 121.92388266 -0.11068493 C126.83589781 -0.107321 131.7477334 -0.1096926 136.65972328 -0.12693596 C141.28177911 -0.14245357 145.90342142 -0.13839632 150.5254612 -0.11963081 C152.21606367 -0.11595787 153.90669711 -0.11901542 155.59727097 -0.1295166 C167.66082173 -0.19869436 177.55925534 0.74787698 186.71403503 9.40330505 C194.80076914 18.55266124 195.82887936 28.96550359 195.84294128 40.70018005 C195.86743347 41.76430115 195.89192566 42.82842224 195.91716003 43.92478943 C195.95620213 54.5897883 193.19528781 64.21139662 185.82341003 72.16111755 C175.94066579 81.70168939 164.37817613 81.97527993 151.40519714 81.90525818 C149.70552982 81.91068803 148.0058672 81.91781551 146.30621338 81.92649841 C141.71944385 81.94463074 137.13303688 81.93770661 132.54626155 81.92498207 C127.73031486 81.91480347 122.91439771 81.92426103 118.09844971 81.93052673 C110.01444466 81.93778835 101.93058616 81.92825382 93.84660339 81.90916443 C84.51871407 81.88739119 75.19117447 81.89445634 65.86329359 81.91647005 C57.83322766 81.9346577 49.80326663 81.93716617 41.77318674 81.92671537 C36.98643775 81.92049986 32.19985281 81.91959126 27.41311455 81.93286133 C22.91245824 81.94446859 18.41225027 81.93630564 13.91164207 81.9132843 C12.26619458 81.90802346 10.62070895 81.9094657 8.97527695 81.91833496 C-4.27259147 81.98312716 -13.53539669 80.18582086 -23.39924622 70.75486755 C-26.28248366 67.55479083 -28.15180485 64.45342786 -29.53205872 60.38768005 C-29.8865509 59.40670349 -30.24104309 58.42572693 -30.60627747 57.4150238 C-32.09369162 52.0705615 -31.86085564 46.58028059 -31.84455872 41.07518005 C-31.860672 39.99816833 -31.87678528 38.92115662 -31.89338684 37.81150818 C-31.89997484 26.93472096 -29.68219572 17.7939222 -22.53205872 9.38768005 C-15.88692819 3.20176587 -9.10717034 0.01711228 0 0 Z " fill="#020202" transform="translate(501.5320587158203,70.61231994628906)"/>
<path d="M0 0 C1.21644196 0.00135956 1.21644196 0.00135956 2.4574585 0.00274658 C3.31124588 -0.00397064 4.16503326 -0.01068787 5.04469299 -0.01760864 C7.87643194 -0.03665856 10.70793479 -0.04051627 13.53973389 -0.04266357 C15.5026713 -0.04908638 17.46560773 -0.05581434 19.42854309 -0.06283569 C23.54692811 -0.07482578 27.66522913 -0.07851471 31.78363037 -0.07733154 C37.06790653 -0.0771282 42.35164582 -0.10443893 47.63579464 -0.13887596 C51.69092801 -0.16108331 55.74593089 -0.16517099 59.80111885 -0.16411209 C61.74962783 -0.16647703 63.69813993 -0.17535047 65.64658928 -0.19077682 C68.36908747 -0.21031357 71.09041124 -0.20464783 73.81292725 -0.19256592 C74.62186432 -0.20380493 75.43080139 -0.21504395 76.26425171 -0.22662354 C79.49350368 -0.19009815 81.6288537 -0.16503902 84.19882202 1.89761353 C85.53022344 5.08379596 85.58866896 7.65347811 85.60394287 11.10968018 C85.61080612 11.78658905 85.61766937 12.46349792 85.6247406 13.16091919 C85.64300401 15.39275232 85.63917254 17.62388229 85.63348389 19.85577393 C85.63804556 21.40989409 85.64335109 22.96401223 85.64936829 24.51812744 C85.65829816 27.77301232 85.65587737 31.02765181 85.64593506 34.28253174 C85.63443837 38.45247255 85.65466731 42.62156742 85.6838522 46.79139709 C85.70220167 49.99991224 85.70192443 53.20822412 85.69621468 56.41677856 C85.69606134 57.95416451 85.70211565 59.49156413 85.71450615 61.02890015 C85.72939387 63.17876225 85.71875861 65.32705454 85.70159912 67.47686768 C85.70143295 68.69946289 85.70126678 69.92205811 85.70109558 71.18170166 C85.19989014 74.29327393 85.19989014 74.29327393 83.68734741 76.6879425 C80.17582179 78.95417737 76.94427493 78.84480132 72.89886475 78.79498291 C72.06429245 78.80038589 71.22972015 78.80578888 70.36985779 78.81135559 C67.61362148 78.82385431 64.8584273 78.807346 62.10223389 78.78936768 C60.1869959 78.78952262 58.2717576 78.79101089 56.35652161 78.79377747 C52.34412767 78.79516192 48.332091 78.78259445 44.31976318 78.75982666 C39.17234532 78.73142276 34.0255203 78.73418394 28.87805843 78.74691677 C24.9241274 78.7538653 20.97033385 78.74609444 17.01642036 78.73365974 C15.11817514 78.72913856 13.2199152 78.72881425 11.32166862 78.73272514 C8.67131056 78.73562977 6.0217752 78.71916735 3.371521 78.69732666 C2.58442749 78.70182831 1.79733398 78.70632996 0.98638916 78.71096802 C-1.89739834 78.67140512 -4.22544704 78.60761118 -6.78756714 77.20614624 C-8.36192647 74.23190297 -8.17406534 71.63124594 -8.17242432 68.28326416 C-8.17607498 67.57402802 -8.17972565 66.86479187 -8.18348694 66.13406372 C-8.19159309 63.78975481 -8.17798377 61.44613691 -8.16339111 59.10186768 C-8.16287257 57.4742686 -8.16339005 55.84666889 -8.16490173 54.21907043 C-8.16481201 50.80856981 -8.15438167 47.39830559 -8.1362915 43.987854 C-8.11358622 39.61052007 -8.11306343 35.23353107 -8.11980915 30.85615444 C-8.12314596 27.49590474 -8.11652481 24.13573407 -8.10667992 20.77549934 C-8.10282399 19.16111731 -8.10168132 17.54672649 -8.10326576 15.93234062 C-8.10363549 13.6793521 -8.09104339 11.42681069 -8.07476807 9.17388916 C-8.07016068 7.89054184 -8.06555328 6.60719452 -8.06080627 5.28495789 C-7.5813269 -0.2174222 -4.88852705 0.05643696 0 0 Z " fill="#010101" transform="translate(672.8001098632813,299.70672607421875)"/>
<path d="M0 0 C0.84417984 -0.00540298 1.68835968 -0.01080597 2.55812073 -0.01637268 C5.3522534 -0.02889354 8.14536241 -0.01234697 10.93945312 0.00561523 C12.87854059 0.00546032 14.81762837 0.00397267 16.75671387 0.00120544 C20.82216059 -0.00018005 24.88725515 0.0124047 28.95263672 0.03515625 C34.16846223 0.06354128 39.38370241 0.06080555 44.59957123 0.04806614 C48.60411596 0.04111706 52.60852497 0.04888942 56.61305237 0.06132317 C58.53641744 0.06584517 60.45979704 0.06616795 62.38316345 0.06225777 C65.06954909 0.0593531 67.75512307 0.07581655 70.44140625 0.09765625 C71.63842918 0.09090378 71.63842918 0.09090378 72.8596344 0.08401489 C75.77030201 0.12340859 78.12803007 0.17629057 80.71290588 1.5955658 C82.26763326 4.53617019 82.11059488 7.09283892 82.12475586 10.40405273 C82.13161911 11.10192902 82.13848236 11.7998053 82.14555359 12.51882935 C82.16385633 14.82582945 82.15997984 17.13215185 82.15429688 19.43920898 C82.1588567 21.04199445 82.16416168 22.64477795 82.17018127 24.24755859 C82.17911892 27.60677026 82.17668156 30.96574426 82.16674805 34.32495117 C82.15525125 38.63289242 82.17547665 42.94001486 82.20466518 47.24784851 C82.22299705 50.55754824 82.22274092 53.86705059 82.21702766 57.17678833 C82.21687411 58.76523997 82.22294652 60.3537047 82.23531914 61.94210815 C82.25017328 64.1617191 82.23959605 66.3798026 82.22241211 68.59936523 C82.22224594 69.86272705 82.22207977 71.12608887 82.22190857 72.42773438 C81.72070312 75.50170898 81.72070312 75.50170898 80.20143127 77.40785217 C76.67147703 78.96435666 73.31584967 78.92779178 69.52734375 78.90576172 C68.2925251 78.91605659 68.2925251 78.91605659 67.03276062 78.92655945 C64.31398226 78.94484801 61.59577974 78.94098747 58.87695312 78.93530273 C56.98652966 78.9398632 55.09610786 78.94516837 53.20568848 78.95118713 C49.24464175 78.96012201 45.2837966 78.95769041 41.32275391 78.94775391 C36.24485775 78.9362574 31.16765627 78.9564842 26.08985138 78.98567104 C22.18649878 79.00400894 18.28331345 79.00374552 14.37992859 78.99803352 C12.50761439 78.99788005 10.63528903 79.00394609 8.76301575 79.016325 C6.14625321 79.03118973 3.53078432 79.02059228 0.9140625 79.00341797 C0.13991501 79.01308594 -0.63423248 79.02275391 -1.43183899 79.03271484 C-4.77427324 78.9867378 -6.92788967 78.72911198 -9.76002502 76.89637756 C-11.80011132 73.6808039 -11.78048934 71.48563439 -11.78100586 67.68530273 C-11.78640884 67.00839386 -11.79181183 66.33148499 -11.79737854 65.63406372 C-11.8098609 63.4019973 -11.79338003 61.17122212 -11.77539062 58.93920898 C-11.77554563 57.38509046 -11.7770348 55.83097154 -11.77980042 54.27685547 C-11.78118417 51.02187992 -11.7686308 47.76734513 -11.74584961 44.51245117 C-11.71746461 40.34260336 -11.72020239 36.17348781 -11.73293972 32.00358582 C-11.7398986 28.79506183 -11.73210532 25.58670676 -11.71968269 22.37820435 C-11.71517019 20.84083708 -11.71482964 19.30345166 -11.71874809 17.76608276 C-11.72166248 15.61638293 -11.70514436 13.46768799 -11.68334961 11.31811523 C-11.67794662 10.09552002 -11.67254364 8.8729248 -11.66697693 7.61328125 C-10.72752646 0.07312537 -6.79496824 -0.08232116 0 0 Z " fill="#010101" transform="translate(420.279296875,299.498291015625)"/>
<path d="M0 0 C2.82505658 1.50397518 4.78687456 3.45247106 7.0617981 5.70568848 C7.55166702 6.18708786 8.04153595 6.66848724 8.54624939 7.16447449 C10.16047853 8.75533512 11.76329547 10.35712812 13.36526489 11.96032715 C14.48266153 13.07062412 15.60035677 14.18062066 16.71833801 15.29032898 C19.05777279 17.61632072 21.39118662 19.94816417 23.72097778 22.28381348 C26.7116033 25.2803467 29.72010331 28.25819779 32.7337923 31.23151112 C35.04577292 33.51768735 37.34623144 35.81518902 39.64351463 38.11612511 C40.74840403 39.21931765 41.85729748 40.31851467 42.9701786 41.41364479 C44.52199086 42.94340229 46.05719522 44.48810389 47.58914185 46.03771973 C48.46754227 46.9140657 49.34594269 47.79041168 50.2509613 48.6933136 C52.00198364 51.0657959 52.00198364 51.0657959 52.07748413 53.05906677 C50.53759947 55.93226994 48.52084328 57.90456913 46.20681763 60.20153809 C45.7092395 60.69955429 45.21166138 61.1975705 44.69900513 61.7106781 C43.05570789 63.35188851 41.40204729 64.98222253 39.74807739 66.6126709 C38.60542114 67.74973084 37.46342627 68.88745578 36.32206726 70.02581787 C33.31850858 73.01793066 30.3060495 76.00092449 27.29165649 78.9821167 C24.21637172 82.02669524 21.14957819 85.0798004 18.08206177 88.13220215 C12.06365319 94.11845107 6.03581647 100.09509435 0.00198364 106.0657959 C-6.24685055 100.8847048 -12.01357454 95.2661516 -17.77926636 89.5579834 C-18.28159286 89.06098057 -18.78391937 88.56397774 -19.3014679 88.05191422 C-21.94892661 85.43097234 -24.59284579 82.8065131 -27.23434448 80.17956543 C-29.41759954 78.0097468 -31.60793685 75.84746843 -33.80465698 73.69128418 C-36.46920512 71.07587439 -39.1214356 68.44856751 -41.76509094 65.81204605 C-42.77202847 64.81183359 -43.78322575 63.81589079 -44.7986908 62.82433701 C-46.21070347 61.44375589 -47.60579721 60.04593376 -48.99996948 58.64733887 C-49.79826172 57.85713348 -50.59655396 57.0669281 -51.41903687 56.2527771 C-52.99801636 54.0657959 -52.99801636 54.0657959 -53.03788757 52.09568787 C-51.5706132 49.2314789 -49.62342205 47.29310222 -47.35812378 45.00598145 C-46.8767244 44.51611252 -46.39532501 44.02624359 -45.89933777 43.52153015 C-44.30847713 41.90730101 -42.70668414 40.30448407 -41.10348511 38.70251465 C-39.99318813 37.58511801 -38.8831916 36.46742277 -37.77348328 35.34944153 C-35.44749153 33.01000675 -33.11564809 30.67659292 -30.77999878 28.34680176 C-27.78346555 25.35617624 -24.80561447 22.34767623 -21.83230114 19.33398724 C-19.54612491 17.02200663 -17.24862323 14.7215481 -14.94768715 12.42426491 C-13.84449461 11.31937551 -12.74529758 10.21048206 -11.65016747 9.09760094 C-10.12040997 7.54578868 -8.57570837 6.01058432 -7.02609253 4.4786377 C-6.14974655 3.60023727 -5.27340057 2.72183685 -4.37049866 1.81681824 C-1.99801636 0.0657959 -1.99801636 0.0657959 0 0 Z " fill="#030303" transform="translate(583.9980163574219,188.9342041015625)"/>
<path d="M0 0 C1.02359973 -0.00701996 1.02359973 -0.00701996 2.06787825 -0.01418173 C4.35961685 -0.02616928 6.6507616 -0.01666028 8.94250488 -0.00723267 C10.58338267 -0.01129671 12.22425772 -0.01663765 13.86512756 -0.02316284 C18.32582089 -0.03686215 22.78630651 -0.03152706 27.24700356 -0.02202559 C31.91011754 -0.0144425 36.57321346 -0.02147083 41.23632812 -0.02618408 C49.06794434 -0.03164558 56.89947575 -0.02443969 64.7310791 -0.01016235 C73.79191303 0.00616492 82.85254445 0.00087669 91.91337347 -0.01564157 C99.68583331 -0.02924521 107.45823212 -0.0311816 115.23070002 -0.02332556 C119.87591529 -0.01864286 124.52103531 -0.01804054 129.16624451 -0.02793503 C133.53291769 -0.03658613 137.8993292 -0.03061694 142.26597404 -0.01325226 C143.87081912 -0.00927745 145.47568612 -0.01043839 147.08052254 -0.01704025 C149.26695337 -0.02520697 151.45253939 -0.01499441 153.63891602 0 C154.86376961 0.00113108 156.0886232 0.00226215 157.35059357 0.00342751 C160.31945801 0.38095093 160.31945801 0.38095093 162.21355438 1.71726036 C163.94666971 4.32451072 163.69960399 6.33978307 163.31945801 9.38095093 C162.21355438 11.04464149 162.21355438 11.04464149 160.31945801 12.38095093 C157.35059357 12.75847435 157.35059357 12.75847435 153.63891602 12.76190186 C152.61531628 12.76892181 152.61531628 12.76892181 151.57103777 12.77608359 C149.27929917 12.78807113 146.98815441 12.77856213 144.69641113 12.76913452 C143.05553335 12.77319857 141.4146583 12.77853951 139.77378845 12.7850647 C135.31309513 12.79876401 130.85260951 12.79342891 126.39191246 12.78392744 C121.72879848 12.77634436 117.06570255 12.78337269 112.40258789 12.78808594 C104.57097167 12.79354744 96.73944026 12.78634154 88.90783691 12.77206421 C79.84700299 12.75573693 70.78637156 12.76102516 61.72554255 12.77754343 C53.9530827 12.79114707 46.1806839 12.79308345 38.408216 12.78522742 C33.76300073 12.78054472 29.1178807 12.77994239 24.47267151 12.78983688 C20.10599833 12.79848799 15.73958681 12.79251879 11.37294197 12.77515411 C9.7680969 12.77117931 8.16322989 12.77234025 6.55839348 12.77894211 C4.37196264 12.78710882 2.18637662 12.77689626 0 12.76190186 C-1.83728039 12.76020524 -1.83728039 12.76020524 -3.71167755 12.75847435 C-6.68054199 12.38095093 -6.68054199 12.38095093 -8.57463837 11.04464149 C-10.3077537 8.43739113 -10.06068797 6.42211879 -9.68054199 3.38095093 C-7.17668068 -0.38578819 -4.26268405 0.00393633 0 0 Z " fill="#F6F6F6" transform="translate(506.6805419921875,104.61904907226563)"/>
<path d="M0 0 C2.60888672 1.83251953 2.60888672 1.83251953 5.1796875 4.3828125 C6.1078125 5.30320312 7.0359375 6.22359375 7.9921875 7.171875 C8.46495117 7.65720703 8.93771484 8.14253906 9.42480469 8.64257812 C10.87110964 10.12102319 12.346653 11.56470531 13.828125 13.0078125 C14.74851562 13.9359375 15.66890625 14.8640625 16.6171875 15.8203125 C17.87958252 17.09285889 17.87958252 17.09285889 19.16748047 18.39111328 C21.38137991 21.54295573 21.46078884 23.22562152 21 27 C19.92578125 28.87890625 19.92578125 28.87890625 18.3125 30.5625 C17.67957031 31.22507812 17.04664063 31.88765625 16.39453125 32.5703125 C15.20923828 33.77300781 15.20923828 33.77300781 14 35 C12.96077789 36.1210426 11.92313156 37.24354718 10.88671875 38.3671875 C9.7593992 39.55879477 8.63048308 40.74889356 7.5 41.9375 C6.96673096 42.51765869 6.43346191 43.09781738 5.8840332 43.69555664 C2.03878701 47.64037509 -0.47528786 48.78375495 -6 49 C-8.19687015 46.71525505 -8.9694705 45.44776598 -9.1875 42.25 C-7.89688854 38.71780021 -6.59304908 37.3765609 -3.92578125 34.796875 C-2.82810425 33.72711426 -2.82810425 33.72711426 -1.70825195 32.63574219 C-0.86266724 31.8260498 -0.86266724 31.8260498 0 31 C-1.1333931 30.99413376 -2.26678619 30.98826752 -3.43452454 30.98222351 C-14.10293563 30.92507131 -24.77114141 30.85234922 -35.43934345 30.76428509 C-40.9243098 30.71951073 -46.40920066 30.68027026 -51.89428711 30.65356445 C-57.18528265 30.6276019 -62.47598876 30.58724974 -67.76680565 30.53681374 C-69.7878275 30.52009722 -71.80889946 30.50861284 -73.82998085 30.50238609 C-76.65560045 30.49279693 -79.48047151 30.46480035 -82.3059082 30.43237305 C-83.56610527 30.43452568 -83.56610527 30.43452568 -84.85176086 30.4367218 C-90.55917784 30.34376348 -90.55917784 30.34376348 -92.71502972 28.66257954 C-94.69598982 26.09948234 -94.39166882 24.13335052 -94 21 C-92.71502972 19.33504772 -92.71502972 19.33504772 -91 18 C-88.03098682 17.71927175 -85.27420253 17.62131608 -82.3059082 17.65942383 C-80.9738887 17.65876671 -80.9738887 17.65876671 -79.61495972 17.65809631 C-76.67667739 17.6601881 -73.73896403 17.6835376 -70.80078125 17.70703125 C-68.76482963 17.71262581 -66.72887397 17.71689657 -64.69291687 17.71989441 C-59.33178577 17.73135414 -53.97089813 17.76083113 -48.60986328 17.79400635 C-43.14033298 17.82468286 -37.67076339 17.83839458 -32.20117188 17.85351562 C-21.4673409 17.88569967 -10.73369068 17.93690973 0 18 C-1.1241176 16.70756532 -2.24932592 15.41607925 -3.375 14.125 C-4.00148438 13.40570313 -4.62796875 12.68640625 -5.2734375 11.9453125 C-6.47426834 10.5923402 -7.7208345 9.2791655 -9 8 C-9.36023622 5.19015752 -9.38332602 3.61758081 -7.875 1.1875 C-5.10128846 -0.56918398 -3.23784297 -0.35154287 0 0 Z " fill="#F6F6F6" transform="translate(620,316)"/>
</svg>
